<?xml version="1.0" encoding="UTF-8"?>
<svg width="14px" height="14px" viewBox="0 0 14 14" version="1.1" xmlns="http://www.w3.org/2000/svg" xmlns:xlink="http://www.w3.org/1999/xlink">
    <!-- Generator: Sketch 53.2 (72643) - https://sketchapp.com -->
    <title>bmw-i</title>
    <desc>Created with Sketch.</desc>
    <defs>
        <linearGradient x1="21.2366272%" y1="36.932962%" x2="78.8409215%" y2="63.0560523%" id="linearGradient-1">
            <stop stop-color="#DCDDDE" offset="14%"></stop>
            <stop stop-color="#C1C3C5" offset="31%"></stop>
            <stop stop-color="#B6B8BA" offset="41%"></stop>
            <stop stop-color="#B9BBBD" offset="51%"></stop>
            <stop stop-color="#C0C2C4" offset="57%"></stop>
            <stop stop-color="#C2C4C6" offset="60%"></stop>
            <stop stop-color="#CDCFD0" offset="83%"></stop>
            <stop stop-color="#BCBEC0" offset="92%"></stop>
            <stop stop-color="#A7A9AC" offset="100%"></stop>
        </linearGradient>
    </defs>
    <g id="Symbols" stroke="none" stroke-width="1" fill="none" fill-rule="evenodd">
        <g id="tip/ticket/brand-bmwi" transform="translate(-5.000000, -2.000000)">
            <g id="bmw-i" transform="translate(5.000000, 2.000000)">
                <path d="M13.9696162,2.57391054e-16 L7.76883655,0.00901589309 C7.76883655,0.00901589309 6.75193927,0.0231837251 6.29848189,0.121714557 C6.2831902,0.121714557 6.26848666,0.12815448 6.25437125,0.131374442 C5.82267513,0.238921167 5.23865026,0.374159563 4.74402295,1.2055537 C4.74402295,1.2055537 4.57110924,1.50372217 4.29174186,2.30034072 L0.00242326277,13.9353508 C-0.00157475672,13.9477288 -0.000592792995,13.9613825 0.00512541505,13.9729228 C0.0108436231,13.9844631 0.0207619454,13.9928079 0.0324184977,13.995886 L0.0453576187,13.995886 C0.051221562,13.9965881 0.0571379312,13.9965881 0.0630018745,13.995886 L7.44124153,13.99975 C7.52802084,14.001369 7.6147737,13.9951224 7.70061209,13.9810742 L7.72766662,13.9765663 L7.75707371,13.9720583 L7.81588789,13.9604665 L7.81588789,13.9604665 L7.90763803,13.9392147 C7.97115735,13.9224709 8.03879366,13.9018632 8.10937068,13.8748155 C8.16230345,13.8554957 8.21758879,13.832956 8.27346226,13.8065523 C8.37239568,13.7603595 8.4681241,13.7063359 8.55988735,13.6449102 C8.57949208,13.6324597 8.59909681,13.6189358 8.61870154,13.6043387 C8.94747284,13.3660615 9.27447971,12.986106 9.49503291,12.3807532 L13.997847,0.0508753967 C14.0015193,0.0399986631 14.0004543,0.0278811232 13.994955,0.0179708309 C13.9894558,0.00806053866 13.9801244,0.0014425434 13.9696162,2.57391054e-16 Z M8.27052155,12.1650157 C8.2230899,12.2888121 8.16014212,12.4047714 8.08349244,12.5095517 L7.14246546,12.5095517 L6.59137654,12.5172796 L9.04039925,5.83135085 C9.3150615,5.06435595 9.96142941,5.05856002 9.96142941,5.05856002 L10.8771663,5.05856002 L8.27052155,12.1650157 Z M11.5858772,3.12271897 C11.2812197,3.98244878 10.5713325,3.89937376 10.5713325,3.89937376 L9.74793391,3.90838965 L10.3360758,2.31386456 L11.8828889,2.31386456 L11.5858772,3.12271897 Z" id="Shape" fill="url(#linearGradient-1)" fill-rule="nonzero"></path>
                <path d="M10.8510432,5.42133553 L11,5.00012706 L9.40342009,5.00012706 C9.40342009,5.00012706 8.84093353,4.96862906 8.5032265,5.89751109 L6,13 L7.60195741,12.9938239 C7.60195741,12.9938239 7.9950527,13.0080289 8.29565498,12.5658218 L8.20208647,12.5238244 L6.9873091,12.5287653 C6.9873091,12.5287653 8.63067326,7.85656281 9.15928157,6.30451458 C9.21986938,6.09903583 9.31629794,5.90990173 9.44267584,5.74866763 C9.61809042,5.54775872 9.8594064,5.44161055 10.1067972,5.45653917 L10.7257475,5.45653917 L10.8510432,5.42133553 Z" id="Path" fill="#33A3DC" fill-rule="nonzero"></path>
                <polygon id="Path" fill="#33A3DC" fill-rule="nonzero" points="12 2 9.72929405 2 9 4 9.80433574 3.99938838 9.87159533 3.92721713 10.3841023 2.52599388 11.6892718 2.52415902 11.8221234 2.48562691"></polygon>
                <path d="M0.497257921,14 L5.01782294,1.94193131 C5.71639019,0.0290805022 7,0 7,0 C6.793111,0.0122592396 6.58722155,0.0394623251 6.38372313,0.0814254062 C5.9428389,0.189346381 5.3463838,0.325701625 4.84122898,1.15998892 C4.84122898,1.15998892 4.66523569,1.45919498 4.37932166,2.25858567 L0.00231431521,13.9340842 C0.00231431521,13.9340842 -0.0181081151,13.9987075 0.0623802868,13.9987075 L0.497257921,14 Z" id="Path" fill="#A7A9AC" fill-rule="nonzero"></path>
                <path d="M13.9699477,5.7198012e-17 L13.9699477,5.7198012e-17 L7.76919839,0.00901589309 C7.76919839,0.00901589309 6.75230609,0.0231837251 6.29885093,0.121714557 L6.25650492,0.131374442 C5.81951766,0.238921167 5.23608378,0.374159563 4.74028262,1.2055537 C4.74028262,1.2055537 4.5679579,1.50372217 4.28859188,2.30034072 L0.00223496476,13.9353508 C-0.00145735718,13.9474753 -0.000547156274,13.9607156 0.00476115367,13.9720983 C0.0100694636,13.9834809 0.0193309417,13.9920518 0.030465636,13.995886 L0.0434046936,13.995886 C0.0492686083,13.9965881 0.0551849485,13.9965881 0.0610488632,13.995886 L7.43925242,13.99975 C7.52603131,14.001369 7.61278374,13.9951224 7.69862171,13.9810742 L7.7256761,13.9765663 L7.75508305,13.9720583 L7.81389695,13.9604665 L7.81389695,13.9604665 L7.90564663,13.9392147 C7.9685775,13.9231149 8.03621349,13.9025071 8.1073783,13.8748155 C8.16031081,13.8554957 8.21559588,13.832956 8.27146908,13.8065523 C8.37057043,13.7607527 8.46632469,13.7067142 8.55789277,13.6449102 C8.5774974,13.6324597 8.59710203,13.6189358 8.61670667,13.6043387 C8.9460645,13.3673495 9.27365791,12.987394 9.49479817,12.3807532 L13.9975902,0.0508753967 C14.0014988,0.0401016156 14.0006172,0.0279513486 13.995204,0.017988507 C13.9897908,0.00802566533 13.9804597,0.00137969899 13.9699477,5.7198012e-17 Z M10.3334844,2.31837251 L11.8802899,2.31837251 L11.5862204,3.12465095 C11.2792118,3.98244878 10.5693281,3.89937376 10.5693281,3.89937376 L9.74593351,3.90838965 L10.3334844,2.31837251 Z M8.26852839,12.1650157 C8.22109696,12.2888121 8.15814949,12.4047714 8.08150019,12.5095517 L7.14047781,12.5095517 L6.58939159,12.5172796 L9.03840232,5.83135085 C9.31306322,5.06435595 9.95942797,5.05856002 9.95942797,5.05856002 L10.8751604,5.05856002 L8.26852839,12.1650157 Z" id="Shape"></path>
            </g>
        </g>
    </g>
</svg>