<?xml version="1.0" encoding="UTF-8"?>
<svg width="24px" height="10px" viewBox="0 0 24 10" version="1.1" xmlns="http://www.w3.org/2000/svg" xmlns:xlink="http://www.w3.org/1999/xlink">
    <!-- Generator: Sketch 53.2 (72643) - https://sketchapp.com -->
    <title>mini</title>
    <desc>Created with Sketch.</desc>
    <g id="Symbols" stroke="none" stroke-width="1" fill="none" fill-rule="evenodd">
        <g id="tip/ticket/brand-mini" transform="translate(0.000000, -4.000000)" fill="#000000" fill-rule="nonzero">
            <g id="mini" transform="translate(0.000000, 4.000000)">
                <path d="M12,9.28651711 C9.50472239,9.28626504 7.4821156,7.36702381 7.48238129,4.99977183 C7.48264698,2.63251984 9.50568453,0.713687273 12.0009621,0.713939318 C14.4962397,0.714191364 16.5188465,2.63343258 16.5185809,5.00068456 C16.5161933,7.367102 14.4943984,9.28475596 12,9.28651711 L12,9.28651711 Z M19.1076368,6.96447302 L16.8466627,6.96447302 C16.9688168,6.6952348 17.0654113,6.41619563 17.1352977,6.130673 L19.9855683,6.130673 L20.7379435,5.41690001 L17.2512327,5.41690001 C17.2622971,5.27998704 17.2709561,5.14307406 17.2709561,5.00022819 C17.2709561,4.85738232 17.2627781,4.72092572 17.2512327,4.58355636 L21.6173181,4.58355636 L22.3692123,3.86978338 L17.1328924,3.86978338 C17.0629277,3.58413347 16.9663359,3.30494927 16.8442574,3.03552698 L23.2481058,3.03552698 L24,2.32175399 L16.4473842,2.32175399 C15.4821834,0.876138804 13.8040059,1.01335959e-16 12.0002405,0 C10.1964751,-1.11469555e-16 8.51829767,0.876138804 7.55309681,2.32175399 L0,2.32175399 L0.751894167,3.03598335 L7.1538184,3.03598335 C7.03184636,3.30544386 6.93525771,3.58461896 6.8651834,3.87023976 L1.63078773,3.87023976 L2.38316296,4.58401274 L6.74924835,4.58401274 C6.73722189,4.72092572 6.72952495,4.86012058 6.72952495,5.00068456 C6.72952495,5.14124855 6.73722189,5.27998704 6.74924835,5.41735639 L3.26157547,5.41735639 L4.01443175,6.130673 L6.8675887,6.130673 C6.93759044,6.41616501 7.03418159,6.69519458 7.15622369,6.96447302 L4.89524955,6.96447302 L5.64762477,7.67824601 L7.55598316,7.67824601 C8.52118402,9.1238612 10.1993615,10 12.0031269,10 C13.8068923,10 15.4850697,9.1238612 16.4502706,7.67824601 L18.3581479,7.67824601 L19.1105232,6.96447302 L19.1076368,6.96447302 Z M15.6050511,6.130673 L15.1119663,6.130673 L15.1119663,3.86978338 L15.6050511,3.86978338 L15.6050511,6.130673 L15.6050511,6.130673 Z M13.0400481,6.130673 L12.5657246,6.130673 L12.5657246,3.86978338 L13.1473241,3.86978338 L14.0974143,5.50954446 L14.0974143,3.86978338 L14.5693325,3.86978338 L14.5693325,6.130673 L13.9891762,6.130673 L13.0400481,4.49912669 L13.0400481,6.130673 L13.0400481,6.130673 Z M12.0254961,6.130673 L11.5319302,6.130673 L11.5319302,3.86978338 L12.0254961,3.86978338 L12.0254961,6.130673 L12.0254961,6.130673 Z M8.85965123,6.130673 L8.39398677,6.130673 L8.39398677,3.86978338 L9.08719182,3.86978338 L9.69476849,5.67475279 L10.2975346,3.86978338 L10.9897775,3.86978338 L10.9897775,6.130673 L10.5087192,6.130673 L10.5087192,4.45714005 L9.95069152,6.130673 L9.43114853,6.130673 L8.857727,4.44207962 L8.857727,6.130673 L8.85965123,6.130673 Z" id="Shape"></path>
            </g>
        </g>
    </g>
</svg>