<?xml version="1.0" encoding="UTF-8"?>
<svg width="184px" height="36px" viewBox="0 0 184 36" version="1.1" xmlns="http://www.w3.org/2000/svg" xmlns:xlink="http://www.w3.org/1999/xlink">
    <!-- Generator: Sketch 53.2 (72643) - https://sketchapp.com -->
    <title>Group 3</title>
    <desc>Created with Sketch.</desc>
    <g id="Page-1" stroke="none" stroke-width="1" fill="none" fill-rule="evenodd">
        <g id="Group-3">
            <g id="Group-2" transform="translate(42.000000, 3.000000)" fill="#FFFFFF" fill-rule="nonzero">
                <path d="M4.3046875,15 L4.3046875,5.078125 L0.2421875,5.078125 L0.2421875,2.9375 L10.9765625,2.9375 L10.9765625,5.078125 L6.9140625,5.078125 L6.9140625,15 L4.3046875,15 Z M12.8471875,15 L12.8471875,2.9375 L21.776875,2.9375 L21.776875,5.078125 L15.4565625,5.078125 L15.4565625,7.78125 L21.4253125,7.78125 L21.4253125,9.9296875 L15.4565625,9.9296875 L15.4565625,12.859375 L22.0503125,12.859375 L22.0503125,15 L12.8471875,15 Z M24.256875,15 L24.256875,2.9375 L26.86625,2.9375 L26.86625,12.859375 L33.0146875,12.859375 L33.0146875,15 L24.256875,15 Z M34.8775,15 L34.8775,2.9375 L43.8071875,2.9375 L43.8071875,5.078125 L37.486875,5.078125 L37.486875,7.78125 L43.455625,7.78125 L43.455625,9.9296875 L37.486875,9.9296875 L37.486875,12.859375 L44.080625,12.859375 L44.080625,15 L34.8775,15 Z M45.5528125,11.5625 L48.0840625,10.953125 C48.2455216,11.6458368 48.4981233,12.1614566 48.841875,12.5 C49.3158357,12.9739607 50.0371827,13.2109375 51.0059375,13.2109375 C52.5684453,13.2109375 53.3496875,12.7031301 53.3496875,11.6875 C53.3496875,11.2291644 53.1908349,10.8750013 52.873125,10.625 C52.53979,10.3697904 52.0528157,10.1901047 51.4121875,10.0859375 L49.95125,9.8515625 C48.7168688,9.65364484 47.7871906,9.3177107 47.1621875,8.84375 C46.3653085,8.23437195 45.966875,7.38021383 45.966875,6.28125 C45.966875,5.09895242 46.4408286,4.18229492 47.38875,3.53125 C48.2481293,2.94270539 49.391347,2.6484375 50.8184375,2.6484375 C52.4226122,2.6484375 53.6517666,2.98437164 54.5059375,3.65625 C55.1673991,4.17708594 55.6491652,4.94009914 55.95125,5.9453125 L53.5371875,6.6796875 C53.3288531,6.04426766 53.0423977,5.57552234 52.6778125,5.2734375 C52.2246852,4.89843562 51.5866708,4.7109375 50.76375,4.7109375 C50.1179134,4.7109375 49.6022936,4.82812383 49.216875,5.0625 C48.810623,5.31770961 48.6075,5.6822893 48.6075,6.15625 C48.6075,6.54687695 48.7298946,6.84895727 48.9746875,7.0625 C49.2663556,7.31770961 49.7845796,7.51041602 50.529375,7.640625 L52.545,7.9921875 C53.7585477,8.20573023 54.633539,8.57812234 55.17,9.109375 C55.7585446,9.69791961 56.0528125,10.5104115 56.0528125,11.546875 C56.0528125,12.6822973 55.6335459,13.5807259 54.795,14.2421875 C53.9043705,14.9401077 52.6361541,15.2890625 50.9903125,15.2890625 C49.4850966,15.2890625 48.3106292,15.020836 47.466875,14.484375 C46.5345787,13.9010387 45.8965642,12.9270902 45.5528125,11.5625 Z M58.36875,15 L58.36875,2.9375 L67.2984375,2.9375 L67.2984375,5.078125 L60.978125,5.078125 L60.978125,7.78125 L66.946875,7.78125 L66.946875,9.9296875 L60.978125,9.9296875 L60.978125,12.859375 L67.571875,12.859375 L67.571875,15 L58.36875,15 Z M69.7784375,15 L69.7784375,2.9375 L75.5440625,2.9375 C77.0180282,2.9375 78.1013507,3.33593352 78.7940625,4.1328125 C79.3357319,4.74739891 79.6065625,5.58072391 79.6065625,6.6328125 C79.6065625,8.13282 78.8982363,9.21093422 77.4815625,9.8671875 L80.0675,15 L77.145625,15 L74.9503125,10.296875 L72.3565625,10.296875 L72.3565625,15 L69.7784375,15 Z M72.3565625,8.265625 L74.8721875,8.265625 C76.2471944,8.265625 76.9346875,7.70573477 76.9346875,6.5859375 C76.9346875,6.01301797 76.7628142,5.60156375 76.4190625,5.3515625 C76.0805191,5.10676961 75.5648993,4.984375 74.8721875,4.984375 L72.3565625,4.984375 L72.3565625,8.265625 Z M84.9459375,15 L80.8053125,2.9375 L83.5709375,2.9375 L86.625625,12.5390625 L89.688125,2.9375 L92.2896875,2.9375 L88.1490625,15 L84.9459375,15 Z M93.918125,15 L93.918125,2.9375 L96.5275,2.9375 L96.5275,15 L93.918125,15 Z M109.890313,6.6015625 L107.296563,7.1953125 C106.89031,5.60155453 105.973653,4.8046875 104.546563,4.8046875 C103.551766,4.8046875 102.796565,5.18749617 102.280938,5.953125 C101.786143,6.68229531 101.53875,7.73176398 101.53875,9.1015625 C101.53875,11.7734509 102.551761,13.109375 104.577813,13.109375 C106.208029,13.109375 107.148124,12.1875092 107.398125,10.34375 L110.03875,10.6796875 C109.741874,12.0442777 109.234066,13.0937463 108.515313,13.828125 C107.567391,14.8020882 106.247092,15.2890625 104.554375,15.2890625 C102.98145,15.2890625 101.708026,14.8567752 100.734063,13.9921875 C99.4996813,12.898432 98.8825,11.2552193 98.8825,9.0625 C98.8825,7.06769836 99.3772867,5.50781813 100.366875,4.3828125 C101.382505,3.22655672 102.809574,2.6484375 104.648125,2.6484375 C106.439801,2.6484375 107.796558,3.19009875 108.718438,4.2734375 C109.213232,4.86198211 109.603853,5.63801602 109.890313,6.6015625 Z M112.159375,15 L112.159375,2.9375 L121.089063,2.9375 L121.089063,5.078125 L114.76875,5.078125 L114.76875,7.78125 L120.7375,7.78125 L120.7375,9.9296875 L114.76875,9.9296875 L114.76875,12.859375 L121.3625,12.859375 L121.3625,15 L112.159375,15 Z" id="TELESERVICE"></path>
                <path d="M1.7421875,28 L1.7421875,20.4609375 L2.7578125,20.4609375 L2.7578125,28 L1.7421875,28 Z M4.90742188,28 L4.90742188,20.4609375 L6.08417969,20.4609375 L9.81464844,26.6181641 L9.81464844,20.4609375 L10.8058594,20.4609375 L10.8058594,28 L9.62421875,28 L5.89375,21.828125 L5.89375,28 L4.90742188,28 Z M12.9603516,28 L12.9603516,20.4609375 L18.1898438,20.4609375 L18.1898438,21.359375 L13.9759766,21.359375 L13.9759766,23.6787109 L17.7601563,23.6787109 L17.7601563,24.5820312 L13.9759766,24.5820312 L13.9759766,28 L12.9603516,28 Z M23.103125,20.2802734 C24.2033909,20.2802734 25.0660125,20.6269497 25.6910156,21.3203125 C26.319274,22.0201858 26.6333984,22.9902282 26.6333984,24.2304688 C26.6333984,25.4674541 26.319274,26.4358689 25.6910156,27.1357422 C25.0627573,27.8323603 24.2082736,28.1806641 23.1275391,28.1806641 C22.1314403,28.1806641 21.3274119,27.8974638 20.7154297,27.3310547 C19.9602176,26.6279262 19.5826172,25.5927803 19.5826172,24.2255859 C19.5826172,22.9886006 19.8967417,22.0201858 20.525,21.3203125 C21.1500031,20.6269497 22.0093695,20.2802734 23.103125,20.2802734 Z M23.103125,21.1298828 C22.3218711,21.1298828 21.7082705,21.4261038 21.2623047,22.0185547 C20.8488912,22.5719429 20.6421875,23.3092402 20.6421875,24.2304688 C20.6421875,25.1484421 20.8488912,25.8857394 21.2623047,26.4423828 C21.7082705,27.0348337 22.3137332,27.3310547 23.0787109,27.3310547 C23.8013708,27.3310547 24.3807921,27.0869165 24.8169922,26.5986328 C25.321552,26.035479 25.5738281,25.2460988 25.5738281,24.2304688 C25.5738281,23.3092402 25.3654969,22.5719429 24.9488281,22.0185547 C24.4996071,21.4261038 23.8843789,21.1298828 23.103125,21.1298828 Z M28.5193359,28 L28.5193359,20.4609375 L31.7664063,20.4609375 C32.6681035,20.4609375 33.3240214,20.7034481 33.7341797,21.1884766 C33.8969409,21.38379 34.01901,21.632811 34.1003906,21.9355469 C34.1654951,22.1829439 34.1980469,22.4254545 34.1980469,22.6630859 C34.1980469,23.1611353 34.0662123,23.5957013 33.8025391,23.9667969 C33.5649077,24.3085955 33.2361349,24.5624992 32.8162109,24.7285156 L34.4470703,28 L33.2751953,28 L31.8054688,24.8994141 C31.7729165,24.9059245 31.735482,24.9091797 31.6931641,24.9091797 L29.5154297,24.9091797 L29.5154297,28 L28.5193359,28 Z M29.5154297,24.0693359 L31.5662109,24.0693359 C32.0544946,24.0693359 32.4304674,23.9619151 32.6941406,23.7470703 C32.9903661,23.5094389 33.1384766,23.149742 33.1384766,22.6679688 C33.1384766,21.7565059 32.6143933,21.3007812 31.5662109,21.3007812 L29.5154297,21.3007812 L29.5154297,24.0693359 Z M36.1962891,28 L36.1962891,20.4609375 L37.7539062,20.4609375 L39.9658203,26.9111328 L42.265625,20.4609375 L43.7744141,20.4609375 L43.7744141,28 L42.8027344,28 L42.8027344,21.4521484 L40.4541016,28 L39.4140625,28 L37.1630859,21.4521484 L37.1630859,28 L36.1962891,28 Z M45.1867187,28 L48.0285156,20.4609375 L49.3175781,20.4609375 L52.1544922,28 L51.0753906,28 L50.4064453,26.1494141 L46.8371094,26.1494141 L46.1583984,28 L45.1867187,28 Z M47.1691406,25.2802734 L50.0890625,25.2802734 L48.6388672,21.3007812 L47.1691406,25.2802734 Z M54.7582031,28 L54.7582031,21.359375 L52.0873047,21.359375 L52.0873047,20.4609375 L58.4496094,20.4609375 L58.4496094,21.359375 L55.7787109,21.359375 L55.7787109,28 L54.7582031,28 Z M60.0865234,28 L60.0865234,20.4609375 L61.1021484,20.4609375 L61.1021484,28 L60.0865234,28 Z M66.4988281,20.2802734 C67.599094,20.2802734 68.4617156,20.6269497 69.0867187,21.3203125 C69.7149771,22.0201858 70.0291016,22.9902282 70.0291016,24.2304688 C70.0291016,25.4674541 69.7149771,26.4358689 69.0867187,27.1357422 C68.4584604,27.8323603 67.6039768,28.1806641 66.5232422,28.1806641 C65.5271435,28.1806641 64.723115,27.8974638 64.1111328,27.3310547 C63.3559207,26.6279262 62.9783203,25.5927803 62.9783203,24.2255859 C62.9783203,22.9886006 63.2924448,22.0201858 63.9207031,21.3203125 C64.5457062,20.6269497 65.4050727,20.2802734 66.4988281,20.2802734 Z M66.4988281,21.1298828 C65.7175742,21.1298828 65.1039736,21.4261038 64.6580078,22.0185547 C64.2445943,22.5719429 64.0378906,23.3092402 64.0378906,24.2304688 C64.0378906,25.1484421 64.2445943,25.8857394 64.6580078,26.4423828 C65.1039736,27.0348337 65.7094363,27.3310547 66.4744141,27.3310547 C67.1970739,27.3310547 67.7764952,27.0869165 68.2126953,26.5986328 C68.7172551,26.035479 68.9695312,25.2460988 68.9695312,24.2304688 C68.9695312,23.3092402 68.7612,22.5719429 68.3445312,22.0185547 C67.8953103,21.4261038 67.280082,21.1298828 66.4988281,21.1298828 Z M71.9150391,28 L71.9150391,20.4609375 L73.0917969,20.4609375 L76.8222656,26.6181641 L76.8222656,20.4609375 L77.8134766,20.4609375 L77.8134766,28 L76.6318359,28 L72.9013672,21.828125 L72.9013672,28 L71.9150391,28 Z M83.0111328,28 L83.0111328,20.4609375 L86.2191406,20.4609375 C87.0720095,20.4609375 87.7067687,20.7164688 88.1234375,21.2275391 C88.4391943,21.6149108 88.5970703,22.127601 88.5970703,22.765625 C88.5970703,23.4654983 88.3643252,24.0237609 87.8988281,24.4404297 C87.433331,24.8538432 86.8067097,25.0605469 86.0189453,25.0605469 L84.0072266,25.0605469 L84.0072266,28 L83.0111328,28 Z M84.0072266,24.2207031 L86.0287109,24.2207031 C86.4779319,24.2207031 86.8392564,24.0970064 87.1126953,23.8496094 C87.4154312,23.5794257 87.5667969,23.2115909 87.5667969,22.7460938 C87.5667969,22.228513 87.3991553,21.8444023 87.0638672,21.59375 C86.8067044,21.3984365 86.4714213,21.3007812 86.0580078,21.3007812 L84.0072266,21.3007812 L84.0072266,24.2207031 Z M90.3169922,28 L90.3169922,20.4609375 L91.3326172,20.4609375 L91.3326172,27.1015625 L95.3853516,27.1015625 L95.3853516,28 L90.3169922,28 Z M96.2507812,28 L99.0925781,20.4609375 L100.381641,20.4609375 L103.218555,28 L102.139453,28 L101.470508,26.1494141 L97.9011719,26.1494141 L97.2224609,28 L96.2507812,28 Z M98.2332031,25.2802734 L101.153125,25.2802734 L99.7029297,21.3007812 L98.2332031,25.2802734 Z M105.822266,28 L105.822266,21.359375 L103.151367,21.359375 L103.151367,20.4609375 L109.513672,20.4609375 L109.513672,21.359375 L106.842773,21.359375 L106.842773,28 L105.822266,28 Z M111.150586,28 L111.150586,20.4609375 L116.380078,20.4609375 L116.380078,21.359375 L112.166211,21.359375 L112.166211,23.6787109 L115.950391,23.6787109 L115.950391,24.5820312 L112.166211,24.5820312 L112.166211,28 L111.150586,28 Z M121.293359,20.2802734 C122.393625,20.2802734 123.256247,20.6269497 123.88125,21.3203125 C124.509508,22.0201858 124.823633,22.9902282 124.823633,24.2304688 C124.823633,25.4674541 124.509508,26.4358689 123.88125,27.1357422 C123.252992,27.8323603 122.398508,28.1806641 121.317773,28.1806641 C120.321675,28.1806641 119.517646,27.8974638 118.905664,27.3310547 C118.150452,26.6279262 117.772852,25.5927803 117.772852,24.2255859 C117.772852,22.9886006 118.086976,22.0201858 118.715234,21.3203125 C119.340237,20.6269497 120.199604,20.2802734 121.293359,20.2802734 Z M121.293359,21.1298828 C120.512105,21.1298828 119.898505,21.4261038 119.452539,22.0185547 C119.039126,22.5719429 118.832422,23.3092402 118.832422,24.2304688 C118.832422,25.1484421 119.039126,25.8857394 119.452539,26.4423828 C119.898505,27.0348337 120.503968,27.3310547 121.268945,27.3310547 C121.991605,27.3310547 122.571026,27.0869165 123.007227,26.5986328 C123.511786,26.035479 123.764062,25.2460988 123.764062,24.2304688 C123.764062,23.3092402 123.555731,22.5719429 123.139062,22.0185547 C122.689842,21.4261038 122.074613,21.1298828 121.293359,21.1298828 Z M126.70957,28 L126.70957,20.4609375 L129.956641,20.4609375 C130.858338,20.4609375 131.514256,20.7034481 131.924414,21.1884766 C132.087175,21.38379 132.209244,21.632811 132.290625,21.9355469 C132.355729,22.1829439 132.388281,22.4254545 132.388281,22.6630859 C132.388281,23.1611353 132.256447,23.5957013 131.992773,23.9667969 C131.755142,24.3085955 131.426369,24.5624992 131.006445,24.7285156 L132.637305,28 L131.46543,28 L129.995703,24.8994141 C129.963151,24.9059245 129.925716,24.9091797 129.883398,24.9091797 L127.705664,24.9091797 L127.705664,28 L126.70957,28 Z M127.705664,24.0693359 L129.756445,24.0693359 C130.244729,24.0693359 130.620702,23.9619151 130.884375,23.7470703 C131.1806,23.5094389 131.328711,23.149742 131.328711,22.6679688 C131.328711,21.7565059 130.804628,21.3007812 129.756445,21.3007812 L127.705664,21.3007812 L127.705664,24.0693359 Z M134.386523,28 L134.386523,20.4609375 L135.944141,20.4609375 L138.156055,26.9111328 L140.455859,20.4609375 L141.964648,20.4609375 L141.964648,28 L140.992969,28 L140.992969,21.4521484 L138.644336,28 L137.604297,28 L135.35332,21.4521484 L135.35332,28 L134.386523,28 Z" id="INFORMATIONPLATFORM"></path>
            </g>
            <circle id="Oval" fill="#FFFFFF" cx="18" cy="18" r="18"></circle>
            <g id="Group" transform="translate(6.000000, 10.000000)" fill-rule="nonzero">
                <path d="M22.0935484,0 L16.2870968,0 C12.2625444,0 9,3.4636601 9,7.73630137 C9,7.73630137 9,7.81849315 9,7.85958904 L9,7.85958904 L9,15.9452055 C9,17.0800372 9.86654565,18 10.9354839,18 C12.0044221,18 12.8709677,17.0800372 12.8709677,15.9452055 L12.8709677,7.85958904 L12.8709677,7.85958904 C12.8709677,7.85958904 12.8709677,7.77739726 12.8709677,7.73630137 C12.8709677,5.75034593 14.3874226,4.14041096 16.2580645,4.14041096 L22.0645161,4.14041096 C23.1334544,4.14041096 24,3.22044812 24,2.08561644 C24,0.950784761 23.1334544,0.0308219178 22.0645161,0.0308219178 L22.0935484,0 Z" id="Path" fill="#323232"></path>
                <path d="M12,0 L11.2713472,4.54747351e-13 L2.27703985,4.54747351e-13 C1.01946547,4.54747351e-13 0,0.8954305 0,2 C0,3.1045695 1.01946547,4 2.27703985,4 L8.29981025,4 C9.071371,2.38280449 10.355724,0.99438593 12,0 L12,0 Z" id="Path" fill="#FECC07"></path>
            </g>
        </g>
    </g>
</svg>